<svg width="120" height="40" viewBox="0 0 120 40" fill="none" xmlns="http://www.w3.org/2000/svg">
<path d="M110.067 7.92967e-06H9.52882C9.16234 7.92967e-06 8.80026 7.92951e-06 8.43476 0.00200793C8.1288 0.00400793 7.82527 0.00981793 7.51637 0.0147079C6.8453 0.0226097 6.17581 0.0816842 5.51371 0.191418C4.85254 0.303541 4.21208 0.514924 3.614 0.818418C3.01664 1.12448 2.47082 1.52218 1.99634 1.99708C1.51937 2.47064 1.12177 3.01802 0.818846 3.61817C0.515083 4.21712 0.304453 4.85895 0.19423 5.52149C0.0829599 6.18319 0.0230842 6.85253 0.0151407 7.52349C0.00586639 7.83009 0.00488699 8.13771 0 8.44435V31.5586C0.00488699 31.8691 0.00586639 32.1699 0.0151407 32.4805C0.0230866 33.1514 0.0829623 33.8207 0.19423 34.4824C0.304149 35.1453 0.514791 35.7875 0.818846 36.3867C1.12164 36.9849 1.51929 37.5301 1.99634 38.001C2.46903 38.478 3.0152 38.876 3.614 39.1797C4.21208 39.484 4.85246 39.6967 5.51371 39.8105C6.17592 39.9194 6.84535 39.9785 7.51637 39.9873C7.82527 39.9941 8.1288 39.998 8.43476 39.998C8.80025 40 9.16236 40 9.52882 40H110.067C110.426 40 110.791 40 111.15 39.998C111.455 39.998 111.767 39.9941 112.072 39.9873C112.741 39.9789 113.41 39.9198 114.07 39.8105C114.734 39.6959 115.377 39.4833 115.978 39.1797C116.576 38.8758 117.121 38.4779 117.594 38.001C118.07 37.5282 118.468 36.9835 118.775 36.3867C119.076 35.7871 119.285 35.145 119.393 34.4824C119.505 33.8206 119.567 33.1515 119.579 32.4805C119.583 32.1699 119.583 31.8691 119.583 31.5586C119.59 31.1953 119.59 30.834 119.59 30.4648V9.53614C119.59 9.16993 119.59 8.80665 119.583 8.44435C119.583 8.13771 119.583 7.83009 119.579 7.52345C119.567 6.85243 119.505 6.18324 119.393 5.52145C119.285 4.85929 119.076 4.21751 118.775 3.61813C118.158 2.4152 117.179 1.43603 115.978 0.818328C115.377 0.515575 114.734 0.304248 114.07 0.191328C113.41 0.0811107 112.742 0.0220157 112.072 0.0145679C111.767 0.00968793 111.455 0.00382793 111.15 0.00187793C110.791 -0.00012207 110.426 -0.00012207 110.067 -0.00012207V7.92967e-06Z" fill="#A6A6A6"/>
<path d="M8.43972 39.125C8.13523 39.125 7.83809 39.1211 7.53599 39.1143C6.91015 39.1061 6.28578 39.0516 5.668 38.9512C5.09194 38.8519 4.5339 38.6673 4.01228 38.4033C3.49544 38.1415 3.02404 37.7983 2.61614 37.3867C2.20233 36.98 1.85782 36.5082 1.59625 35.9902C1.33181 35.4688 1.14879 34.9099 1.05359 34.333C0.950775 33.7131 0.895149 33.0863 0.88719 32.458C0.880853 32.2471 0.872559 31.5449 0.872559 31.5449V8.44434C0.872559 8.44434 0.881393 7.75293 0.88724 7.5498C0.894861 6.92248 0.950163 6.29665 1.05267 5.67773C1.14805 5.09925 1.3312 4.53875 1.59579 4.01563C1.8564 3.49794 2.199 3.02586 2.61031 2.61768C3.02116 2.20562 3.49407 1.8606 4.01179 1.59521C4.53221 1.33209 5.0892 1.14873 5.66409 1.05127C6.28391 0.949836 6.91044 0.894996 7.53845 0.88721L8.44021 0.875H111.146L112.058 0.8877C112.68 0.895099 113.301 0.94945 113.915 1.05029C114.496 1.14898 115.059 1.33362 115.585 1.59814C116.622 2.13299 117.466 2.97916 117.999 4.01807C118.259 4.53758 118.439 5.09351 118.534 5.66699C118.637 6.29099 118.695 6.92174 118.707 7.5542C118.71 7.8374 118.71 8.1416 118.71 8.44434C118.718 8.81934 118.718 9.17627 118.718 9.53613V30.4648C118.718 30.8281 118.718 31.1826 118.71 31.54C118.71 31.8652 118.71 32.1631 118.706 32.4697C118.695 33.0909 118.638 33.7104 118.536 34.3232C118.442 34.9043 118.26 35.4675 117.996 35.9932C117.732 36.5056 117.39 36.9733 116.981 37.3789C116.573 37.7927 116.1 38.1379 115.582 38.4014C115.057 38.6674 114.495 38.8527 113.915 38.9512C113.298 39.0522 112.673 39.1067 112.047 39.1143C111.755 39.1211 111.448 39.125 111.15 39.125L110.067 39.127L8.43972 39.125Z" fill="black"/>
<path fill-rule="evenodd" clip-rule="evenodd" d="M74.6334 29.0762C72.9997 29.0762 71.8041 28.2676 71.6665 27.0362L69.7653 27.0361C69.8854 29.2822 71.7436 30.7031 74.4958 30.7031C77.4374 30.7031 79.2868 29.248 79.2868 26.9248C79.2868 25.1084 78.2289 24.0849 75.6826 23.4824L74.3153 23.1465C72.7157 22.751 72.0618 22.2344 72.0618 21.3565C72.0618 20.2549 73.0855 19.4981 74.5817 19.4981C76.0778 19.4981 77.1016 20.2461 77.2139 21.4854H79.0887C79.0282 19.3428 77.2305 17.8711 74.6081 17.8711C71.9583 17.8711 70.0923 19.3428 70.0923 21.4854C70.0923 23.2158 71.1502 24.2822 73.4291 24.833L75.0375 25.2207C76.6459 25.6162 77.3251 26.1934 77.3251 27.1572C77.3251 28.2676 76.1989 29.0762 74.6334 29.0762ZM42.2764 27.1397H37.5459L36.4099 30.4961H34.4062L38.8869 18.0781H40.9686L45.4493 30.4961H43.4114L42.2764 27.1397ZM38.0358 25.5909H41.7855L39.9371 20.1436H39.8853L38.0358 25.5909ZM51.3499 30.5909C53.621 30.5909 55.1259 28.7833 55.1259 25.9698C55.1259 23.1641 53.6122 21.3477 51.3158 21.3477C50.1341 21.3096 49.0272 21.9245 48.4347 22.9483H48.4006V21.4424H46.6028V33.4913H48.4601V29.0069H48.503C49.0703 30.0371 50.176 30.6523 51.3499 30.5909ZM53.2169 25.9698C53.2169 24.1368 52.2702 22.9317 50.8258 22.9317C49.4068 22.9317 48.4523 24.1622 48.4523 25.9698C48.4523 27.794 49.4068 29.0157 50.8258 29.0157C52.2703 29.0157 53.2169 27.8194 53.2169 25.9698ZM61.3086 30.5909C63.5797 30.5909 65.0846 28.7833 65.0846 25.9698C65.0846 23.1641 63.5709 21.3477 61.2744 21.3477C60.0928 21.3096 58.9858 21.9245 58.3934 22.9483H58.3592V21.4424H56.5615V33.4913H58.4188V29.0069H58.4618C59.029 30.0371 60.1347 30.6523 61.3086 30.5909ZM63.1756 25.9698C63.1756 24.1368 62.229 22.9317 60.7845 22.9317C59.3655 22.9317 58.411 24.1622 58.411 25.9698C58.411 27.794 59.3655 29.0157 60.7845 29.0157C62.229 29.0157 63.1757 27.8194 63.1756 25.9698ZM83.2951 19.2998V21.4424H85.0157V22.9141H83.2951V27.9053C83.2951 28.6807 83.6396 29.042 84.396 29.042C84.6003 29.0385 84.8042 29.0241 85.0069 28.999V30.4619C84.6669 30.5255 84.3212 30.5543 83.9753 30.5479C82.1435 30.5479 81.4291 29.8594 81.4291 28.1035V22.9141H80.1135V21.4424H81.429V19.2998H83.2951ZM90.3035 21.3311C87.6889 21.3311 86.0122 23.1211 86.0122 25.9698C86.0122 28.8262 87.6723 30.6084 90.3035 30.6084C92.9357 30.6084 94.5958 28.8262 94.5958 25.9698C94.5958 23.1211 92.9269 21.3311 90.3035 21.3311ZM92.7034 25.9698C92.7034 24.0157 91.8085 22.8624 90.3035 22.8624C88.7986 22.8624 87.9046 24.0245 87.9046 25.9698C87.9046 27.9317 88.7986 29.0762 90.3035 29.0762C91.8085 29.0762 92.7034 27.9317 92.7034 25.9698H92.7034ZM97.8984 21.4424H96.1271L96.127 30.4962H97.9843V25.126C97.9225 24.5827 98.101 24.0395 98.4731 23.6391C98.8452 23.2386 99.3736 23.0209 99.9196 23.043C100.202 23.0348 100.484 23.0727 100.754 23.1553V21.417C100.545 21.3702 100.332 21.347 100.118 21.3477C99.0968 21.3087 98.1884 21.9914 97.9414 22.9834H97.8984V21.4424ZM109.317 27.837C109.067 29.4805 107.468 30.6084 105.421 30.6084C102.789 30.6084 101.155 28.8438 101.155 26.0127C101.155 23.1729 102.798 21.3311 105.343 21.3311C107.846 21.3311 109.421 23.0518 109.421 25.7969V26.4336H103.03V26.5459C102.97 27.22 103.203 27.8872 103.669 28.3778C104.134 28.8685 104.788 29.1353 105.464 29.1104C106.365 29.1949 107.215 28.677 107.554 27.8369L109.317 27.837ZM107.562 25.1348H103.039C103.037 24.5235 103.28 23.937 103.712 23.5055C104.145 23.074 104.732 22.8333 105.343 22.837C105.949 22.8239 106.533 23.0645 106.954 23.5007C107.376 23.9369 107.596 24.5291 107.562 25.1348Z" fill="white"/>
<path fill-rule="evenodd" clip-rule="evenodd" d="M59.0574 8.43701H59.9455V14.6978H59.0574V8.43701ZM39.9071 9.54887C39.3636 8.97455 38.5913 8.67439 37.8029 8.731H35.6489V14.6978H37.8029C39.5791 14.6978 40.6088 13.6021 40.6088 11.6958C40.7082 10.9111 40.4507 10.1232 39.9071 9.54887ZM37.6994 13.854H36.5751V9.57424H37.6994C38.2599 9.54311 38.8049 9.76425 39.1855 10.1772C39.5661 10.5901 39.7423 11.1516 39.666 11.708C39.7483 12.2668 39.5745 12.833 39.193 13.2493C38.8115 13.6656 38.2629 13.8877 37.6994 13.854ZM41.655 12.4444C41.5778 11.6372 41.9646 10.8561 42.6531 10.4286C43.3416 10.0011 44.2128 10.0011 44.9013 10.4286C45.5898 10.8561 45.9766 11.6372 45.8994 12.4444C45.9781 13.2523 45.5917 14.035 44.9025 14.4634C44.2134 14.8918 43.341 14.8918 42.6519 14.4634C41.9628 14.035 41.5764 13.2523 41.655 12.4444ZM43.7787 10.8975C44.5477 10.8975 44.9859 11.4683 44.9859 12.4443H44.986C44.986 13.4243 44.5477 13.9946 43.7787 13.9946C43.0067 13.9946 42.5724 13.4282 42.5724 12.4443C42.5724 11.4683 43.0067 10.8975 43.7787 10.8975ZM51.5415 14.6978H50.6202L49.6901 11.3814H49.6198L48.6936 14.6978H47.7811L46.5407 10.1948H47.4415L48.2476 13.6308H48.314L49.2392 10.1948H50.0912L51.0164 13.6308H51.0867L51.8889 10.1948H52.7771L51.5415 14.6978ZM54.6753 10.1948H53.8204L53.8204 14.6978H54.7085V12.0635C54.6766 11.7638 54.7771 11.4652 54.9837 11.2458C55.1902 11.0265 55.4822 10.9083 55.783 10.9224C56.4398 10.9224 56.7541 11.2822 56.7541 12.0059V14.6977H57.6422V11.7827C57.7073 11.3424 57.5688 10.8964 57.2658 10.5706C56.9628 10.2448 56.5281 10.0745 56.0846 10.1079C55.5118 10.0613 54.9725 10.3835 54.7417 10.9102H54.6753V10.1948ZM62.1784 10.4285C61.4898 10.856 61.103 11.6372 61.1801 12.4443C61.1015 13.2524 61.488 14.035 62.1772 14.4634C62.8664 14.8918 63.7388 14.8918 64.4279 14.4634C65.1171 14.035 65.5036 13.2524 65.425 12.4443C65.5021 11.6372 65.1153 10.856 64.4267 10.4285C63.7382 10.001 62.8669 10.001 62.1784 10.4285ZM64.511 12.4443C64.511 11.4683 64.0728 10.8975 63.3038 10.8975C62.5318 10.8975 62.0975 11.4683 62.0975 12.4443C62.0975 13.4282 62.5318 13.9946 63.3038 13.9946C64.0728 13.9946 64.511 13.4243 64.511 12.4443ZM68.0338 12.0801C66.9632 12.1465 66.36 12.6138 66.36 13.4243C66.3615 13.8087 66.5254 14.1744 66.8112 14.4312C67.097 14.6879 67.478 14.8117 67.8601 14.772C68.405 14.7972 68.9214 14.5271 69.2118 14.065H69.282V14.6978H70.137V11.6211C70.137 10.6699 69.5006 10.1079 68.3724 10.1079C67.3516 10.1079 66.6245 10.604 66.5337 11.3775H67.3935C67.4921 11.0591 67.8357 10.877 68.3314 10.877C68.9385 10.877 69.2528 11.1455 69.2528 11.6211V12.0098L68.0338 12.0801ZM69.2528 13.0396V12.6631L68.1538 12.7334C67.5341 12.7749 67.253 12.9859 67.253 13.3828C67.253 13.7881 67.6044 14.0239 68.0875 14.0239C68.3735 14.0529 68.659 13.9645 68.8787 13.7789C69.0983 13.5934 69.2333 13.3266 69.2528 13.0396ZM73.1722 10.1201C72.0352 10.1201 71.3042 11.0215 71.3042 12.4444C71.3042 13.8706 72.0274 14.772 73.1722 14.772C73.7526 14.7934 74.297 14.4907 74.5854 13.9863H74.6557V14.6978H75.5067V8.43701H74.6186V10.9101H74.5522C74.2841 10.4015 73.7463 10.0937 73.1722 10.1201ZM72.2217 12.4443C72.2217 13.3994 72.6716 13.9741 73.424 13.9741C74.1726 13.9741 74.6352 13.3911 74.6352 12.4483C74.6352 11.5098 74.1677 10.9185 73.424 10.9185C72.6764 10.9185 72.2216 11.4971 72.2216 12.4443H72.2217ZM80.1793 10.4286C79.4908 10.8561 79.1041 11.6372 79.1812 12.4444C79.1026 13.2523 79.489 14.035 80.1781 14.4634C80.8672 14.8918 81.7396 14.8918 82.4288 14.4634C83.1179 14.035 83.5043 13.2523 83.4257 12.4444C83.5028 11.6372 83.1161 10.8561 82.4276 10.4286C81.739 10.0011 80.8678 10.0011 80.1793 10.4286ZM82.5122 12.4443C82.5122 11.4683 82.074 10.8975 81.3049 10.8975C80.5329 10.8975 80.0987 11.4683 80.0987 12.4443C80.0987 13.4282 80.533 13.9946 81.3049 13.9946C82.074 13.9946 82.5122 13.4243 82.5122 12.4443ZM85.4723 10.1948H84.6173V14.6978H85.5054V12.0635C85.4736 11.7638 85.5741 11.4652 85.7806 11.2458C85.9872 11.0265 86.2791 10.9083 86.58 10.9224C87.2368 10.9224 87.5511 11.2822 87.5511 12.0059V14.6977H88.4392V11.7827C88.5043 11.3424 88.3658 10.8964 88.0628 10.5706C87.7597 10.2448 87.3251 10.0745 86.8815 10.1079C86.3087 10.0613 85.7694 10.3835 85.5386 10.9102H85.4723V10.1948ZM93.4576 9.07373V10.2153H94.4326V10.9639H93.4576V13.2793C93.4576 13.751 93.6518 13.9575 94.0939 13.9575C94.2071 13.9572 94.3202 13.9503 94.4326 13.937V14.6772C94.2731 14.7058 94.1115 14.721 93.9495 14.7226C92.9618 14.7226 92.5685 14.375 92.5685 13.5068V10.9638H91.8541V10.2153H92.5685V9.07373H93.4576ZM96.526 8.43701H95.6457L95.6457 14.6977H96.5339V12.0679C96.5064 11.7589 96.6166 11.4535 96.8351 11.2334C97.0536 11.0133 97.358 10.9009 97.6669 10.9263C98.2945 10.9263 98.6292 11.2905 98.6292 12.0098V14.6978H99.5183V11.7905C99.5771 11.3525 99.4376 10.9111 99.1379 10.5864C98.8382 10.2618 98.4095 10.0878 97.9684 10.1118C97.3869 10.0646 96.8382 10.3872 96.5963 10.9185H96.526V8.43701ZM104.697 13.482C104.448 14.3313 103.626 14.8801 102.747 14.7847C102.147 14.8005 101.57 14.5517 101.17 14.1041C100.769 13.6565 100.586 13.0555 100.668 12.4605C100.588 11.8638 100.771 11.2618 101.169 10.8105C101.567 10.3591 102.141 10.1028 102.743 10.1079C103.995 10.1079 104.75 10.9639 104.75 12.3779V12.688H101.573V12.7378C101.545 13.072 101.659 13.4025 101.887 13.6481C102.115 13.8937 102.436 14.0316 102.771 14.0278C103.206 14.08 103.629 13.8644 103.842 13.4819L104.697 13.482ZM103.846 12.0308H101.573C101.569 11.7203 101.69 11.4213 101.91 11.2017C102.129 10.982 102.428 10.8604 102.738 10.8643C103.044 10.8572 103.339 10.9799 103.55 11.2021C103.761 11.4242 103.868 11.7252 103.846 12.0308Z" fill="white"/>
<path fill-rule="evenodd" clip-rule="evenodd" d="M23.1374 8.72034C23.2342 9.98457 22.8346 11.2367 22.0236 12.211C21.2367 13.1902 20.0445 13.7543 18.7888 13.7413C18.709 12.5135 19.1201 11.3043 19.9318 10.3799C20.7538 9.44312 21.8984 8.85056 23.1374 8.72034ZM27.1087 16.1487C25.6642 17.0373 24.7754 18.6043 24.7535 20.3008C24.7556 22.2201 25.9043 23.9523 27.671 24.6999C27.3312 25.8044 26.8191 26.8481 26.1535 27.7924C25.2597 29.1303 24.3225 30.4374 22.835 30.4616C22.1276 30.4779 21.6501 30.2744 21.1525 30.0623C20.6334 29.841 20.0926 29.6105 19.2462 29.6105C18.3486 29.6105 17.7836 29.8484 17.2386 30.0779C16.7676 30.2763 16.3116 30.4683 15.669 30.495C14.2525 30.5475 13.1699 29.067 12.2435 27.7417C10.3921 25.035 8.95035 20.114 10.8832 16.7656C11.7908 15.1336 13.4878 14.098 15.3533 14.0377C16.1568 14.0212 16.9277 14.331 17.6036 14.6027C18.1205 14.8104 18.5818 14.9958 18.9596 14.9958C19.2917 14.9958 19.7401 14.8178 20.2628 14.6102C21.0861 14.2833 22.0934 13.8832 23.1199 13.991C24.7151 14.041 26.1933 14.8406 27.1087 16.1487Z" fill="white"/>
</svg>
