<svg width="457" height="565" viewBox="0 0 457 565" fill="none" xmlns="http://www.w3.org/2000/svg">
<path d="M539.503 186.57L494.846 173.555L503.858 142.633C510.947 118.307 496.917 92.7744 472.617 85.6924L186.272 2.24044C161.972 -4.84156 136.414 9.18123 129.332 33.4813L120.32 64.404L75.6624 51.3891C52.9342 44.7652 29.0399 57.875 22.416 80.6032L4.81239 141.006C-11.4319 196.744 20.8143 255.319 76.7071 271.608C79.3355 272.374 81.9167 273.015 84.5279 273.552C98.4714 335.74 142.523 389.397 205.027 413.316L178.802 503.301L108.375 482.776C99.8459 480.29 90.8938 485.202 88.408 493.731C85.9222 502.261 90.8338 511.213 99.3633 513.699L271.139 563.761C279.668 566.247 288.621 561.335 291.106 552.805C293.592 544.276 288.681 535.324 280.151 532.838L209.725 512.313L235.942 422.354C301.51 435.759 367.491 414.171 412.662 369.211C415.153 370.161 417.7 371.015 420.302 371.773C476.195 388.063 534.869 355.957 551.106 300.245L568.717 239.817C575.341 217.089 562.231 193.194 539.503 186.57ZM35.7351 150.018L53.3387 89.6153C54.9984 83.9204 60.9811 80.6596 66.6503 82.3118L111.308 95.3267L87.6136 176.628C81.5755 197.346 79.1384 218.275 79.9705 238.731C44.7244 225.271 25.0332 186.738 35.7351 150.018ZM431.209 276.793C424.465 299.933 412.975 320.46 398.136 337.607C397.084 338.531 396.113 339.562 395.31 340.782C354.725 385.26 290.893 405.518 229.279 387.562C167.666 369.605 124.712 318.225 114.377 258.907C114.348 257.472 114.09 256.055 113.699 254.711C110.396 232.277 111.726 208.817 118.477 185.651L160.203 42.4784C162.365 35.2523 169.993 31.0453 177.26 33.1631L463.579 116.608C470.846 118.725 475.053 126.354 472.935 133.621L431.209 276.793ZM520.191 291.207C509.489 327.928 472.187 349.823 435.221 342.265C446.887 325.451 456.101 306.497 462.139 285.779L485.833 204.478L530.491 217.493C536.186 219.153 539.454 225.11 537.795 230.805L520.191 291.207Z" fill="white" fill-opacity="0.04"/>
</svg>
